<?xml version="1.0" standalone="no"?>
<!DOCTYPE svg PUBLIC "-//W3C//DTD SVG 20010904//EN"
 "http://www.w3.org/TR/2001/REC-SVG-20010904/DTD/svg10.dtd">
<svg version="1.0" xmlns="http://www.w3.org/2000/svg"
 width="1075.000000pt" height="1080.000000pt" viewBox="0 0 1075.000000 1080.000000"
 preserveAspectRatio="xMidYMid meet">

<g transform="translate(0.000000,1080.000000) scale(0.100000,-0.100000)"
fill="#000000" stroke="none">
<path d="M5065 10789 c-1576 -99 -3022 -877 -3977 -2140 -929 -1227 -1285
-2797 -982 -4319 395 -1974 1891 -3585 3834 -4128 1135 -317 2344 -256 3440
175 198 77 537 241 717 346 1284 746 2192 1956 2547 3392 41 169 106 500 106
548 0 4 -434 7 -965 7 l-965 0 0 -115 0 -115 415 0 415 0 0 -25 c0 -14 -14
-96 -31 -183 -313 -1612 -1263 -2953 -2545 -3595 -381 -191 -791 -315 -1229
-374 -167 -22 -675 -25 -840 -5 -919 113 -1732 527 -2420 1233 -1213 1245
-1749 3177 -1399 5039 271 1442 1049 2676 2139 3393 1468 965 3288 824 4635
-360 149 -131 383 -370 499 -508 270 -324 477 -644 676 -1047 187 -376 312
-724 435 -1205 l11 -43 523 0 524 0 -43 148 c-331 1126 -1008 2105 -1945 2810
-467 351 -1028 642 -1583 821 -629 203 -1336 291 -1992 250z"/>
<path d="M3688 8642 l-1238 -2 0 -110 0 -110 400 0 399 0 14 -27 c8 -16 513
-1352 1123 -2970 l1109 -2943 60 0 60 0 32 92 c69 204 822 2414 1328 3898 296
866 565 1658 599 1760 l63 185 404 2 404 2 0 111 0 110 -925 0 -925 0 -3 -110
-3 -110 403 -2 c352 -3 403 -5 400 -18 -4 -18 -1562 -4574 -1565 -4577 -3 -3
8 -34 -720 1947 -349 949 -710 1928 -801 2176 -91 249 -166 457 -166 463 0 8
115 11 400 11 l400 0 0 109 c0 61 -3 111 -7 113 -5 2 -565 2 -1245 0z"/>
<path d="M4135 2198 c-81 -30 -147 -95 -186 -184 -34 -74 -32 -190 3 -264 33
-68 98 -136 152 -161 97 -44 222 -15 299 70 68 75 82 114 82 226 0 86 -3 106
-24 148 -31 59 -98 128 -148 153 -46 21 -136 28 -178 12z m158 -35 c41 -21 64
-82 71 -188 8 -104 -6 -271 -26 -311 -20 -41 -61 -66 -116 -72 -70 -6 -115 17
-144 76 -21 43 -23 60 -23 217 0 181 8 226 48 263 45 42 126 48 190 15z"/>
<path d="M7553 2191 c-51 -24 -91 -80 -99 -141 -4 -35 0 -55 18 -90 29 -56 72
-86 146 -100 140 -27 182 -60 182 -141 0 -39 -5 -52 -30 -77 -86 -87 -216 -59
-275 59 -26 50 -52 68 -40 27 14 -49 62 -114 100 -135 57 -32 144 -32 201 2
125 73 135 261 17 341 -17 11 -69 29 -115 39 -104 22 -132 36 -148 75 -32 76
66 155 161 130 51 -14 84 -42 109 -95 12 -25 26 -45 32 -45 19 0 -27 104 -58
131 -48 41 -135 50 -201 20z"/>
<path d="M3000 1890 c0 -200 4 -310 10 -310 6 0 10 106 10 297 0 163 2 294 5
292 2 -3 43 -133 90 -290 81 -268 97 -310 110 -297 3 3 45 135 93 293 l87 289
3 -292 2 -292 55 0 55 0 -2 308 -3 307 -58 3 c-69 4 -59 22 -138 -245 -30
-101 -56 -183 -59 -183 -3 0 -29 82 -59 183 -79 267 -68 247 -140 247 l-61 0
0 -310z"/>
<path d="M4900 1890 l0 -312 153 4 c134 3 158 6 199 26 134 66 196 225 149
382 -19 60 -31 82 -74 125 -65 64 -102 75 -289 82 l-138 6 0 -313z m322 256
c15 -10 37 -38 49 -63 43 -89 36 -333 -13 -411 -28 -46 -64 -61 -162 -68 l-86
-7 0 288 0 287 93 -4 c66 -3 100 -9 119 -22z"/>
<path d="M5847 2194 c-4 -4 -7 -144 -7 -311 l0 -303 215 0 c137 0 215 4 215
10 0 6 -60 10 -160 10 l-160 0 0 140 0 139 88 3 c49 2 87 7 87 13 0 6 -38 11
-87 13 l-88 3 0 129 0 130 161 0 c124 0 160 3 157 13 -4 9 -56 13 -209 15
-113 1 -208 -1 -212 -4z"/>
<path d="M6717 2193 c-4 -3 -7 -143 -7 -310 l0 -303 210 0 c133 0 210 4 210
10 0 6 -58 10 -155 10 l-155 0 0 300 0 300 -48 0 c-27 0 -52 -3 -55 -7z"/>
</g>
</svg>
